<?xml version="1.0" encoding="utf-8"?>
<!-- Generator: Adobe Illustrator 24.0.1, SVG Export Plug-In . SVG Version: 6.00 Build 0)  -->
<svg version="1.1" id="Capa_1" xmlns="http://www.w3.org/2000/svg" xmlns:xlink="http://www.w3.org/1999/xlink" x="0px" y="0px"
	 viewBox="0 0 478 478" style="enable-background:new 0 0 478 478;" xml:space="preserve">
<style type="text/css">
	.st0{fill:#2874F0;}
	.st1{fill:#FFFFFF;}
</style>
<g>
	<path class="st0" d="M400.2,402.6c-0.1,0.1-0.2,0.3-0.3,0.4c-1.3,1.3-2.7,2.3-4,3.5c-3.6,3.3-7.2,6.6-11,9.6
		c-2,1.6-4.2,3.1-6.3,4.7c-3.6,2.7-7.2,5.4-11,7.8c-2.6,1.8-5.2,3.2-7.8,4.8c-3.5,2.1-6.9,4.2-10.5,6.1c-3,1.6-6.1,3-9.2,4.5
		c-3.4,1.6-6.7,3.2-10.2,4.7c-3.4,1.4-7.1,2.7-10.4,3.8c-3.3,1.2-6.5,2.4-9.9,3.4c-3.8,1.1-7.7,2-11.5,3c-3.2,0.7-6.4,1.7-9.6,2.3
		c-4.4,0.9-8.9,1.4-13.4,2.1c-2.8,0.4-5.5,0.9-8.3,1.2c-0.6,0.1-1.2,0.1-1.8,0.2H224c-0.6,0-1.2-0.1-1.8-0.2
		c-2.8-0.3-5.5-0.8-8.3-1.2c-4.5-0.6-9-1.2-13.4-2.1c-3.3-0.6-6.4-1.5-9.6-2.3c-3.9-1-7.7-1.8-11.5-3c-3.4-1-6.4-2.2-9.9-3.4
		c-3.5-1.3-7-2.4-10.4-3.8c-3.5-1.4-6.8-3-10.2-4.7c-3.1-1.5-6.2-2.8-9.2-4.5c-3.6-1.9-7-4-10.5-6.1c-2.6-1.6-5.3-3.2-7.8-4.8
		c-3.8-2.5-7.4-5.2-11-7.8c-2.1-1.5-4.2-3.1-6.3-4.7c-3.8-3.1-7.4-6.4-11-9.6c-1.3-1.2-2.7-2.3-4-3.5c-0.1-0.1-0.2-0.3-0.3-0.4
		c-39.3-37.6-63.4-88-68.3-141.7v-41.2c9.8-107.6,95.5-193.2,203.1-203h41.7c53.7,4.9,104.2,29,141.8,68.3
		C492.8,174.6,489.8,316.8,400.2,402.6z"/>
	<g>
		<path class="st1" d="M409.1,72.6C369.7,31.4,316.8,6.1,260.5,1c-7.2-0.7-14.5-1-21.8-1c-7.4,0-14.7,0.3-21.9,1
			C104.1,11.2,14.3,101,4.1,213.7c-0.6,7-1,14.2-1,21.4c0,7.3,0.3,14.6,1,21.8c5.1,56.3,30.4,109.1,71.6,148.5
			c0.1,0.1,0.2,0.3,0.3,0.5c1.4,1.3,2.9,2.4,4.2,3.7c3.8,3.4,7.6,6.8,11.6,10.1c2.1,1.7,4.4,3.4,6.5,4.9c3.8,2.8,7.5,5.6,11.5,8.2
			c2.7,1.7,5.4,3.4,8.2,5.1c3.6,2.2,7.3,4.4,11,6.4c3.2,1.7,6.4,3.1,9.7,4.7c3.5,1.7,7,3.4,10.6,4.9c3.6,1.5,7.2,2.7,10.9,4
			c3.7,1.3,6.8,2.5,10.4,3.6c4,1.2,8,2.1,12.1,3.1c3.4,0.8,6.6,1.8,10.1,2.4c4.7,0.9,9.4,1.5,14.1,2.2c2.9,0.4,5.8,1,8.7,1.3
			c0.6,0.1,1.3,0.1,1.9,0.2c7.1,0.7,14.2,1,21.4,1c7.2,0,14.3-0.3,21.4-1c0.6,0,1.3-0.1,1.9-0.2c2.9-0.3,5.8-0.9,8.7-1.3
			c4.7-0.6,9.4-1.2,14.1-2.2c3.4-0.7,6.7-1.7,10.1-2.4c4-1,8.1-1.9,12.1-3.1c3.5-1.1,6.9-2.4,10.3-3.6c3.4-1.2,7.3-2.5,10.9-4
			c3.6-1.5,7.1-3.2,10.6-4.9c3.2-1.5,6.5-3,9.7-4.7c3.8-2,7.4-4.2,11-6.4c2.8-1.7,5.5-3.2,8.2-5.1c3.9-2.6,7.7-5.4,11.5-8.2
			c2.2-1.7,4.4-3.2,6.5-4.9c4-3.2,7.8-6.6,11.6-10.1c1.4-1.3,2.9-2.4,4.2-3.7c0.1-0.1,0.2-0.3,0.3-0.5
			C495.9,315.4,499.1,166.4,409.1,72.6z M371.3,387.7c-3.1,2.7-6.2,5.2-9.4,7.7c-1.9,1.4-3.8,2.9-5.7,4.3c-3,2.2-6.1,4.3-9.3,6.3
			c-2.3,1.5-4.6,2.9-7,4.3c-3,1.7-6,3.4-9,5.1c-2.7,1.4-5.4,2.7-8.2,4c-2.8,1.3-5.8,2.6-8.8,3.8c-3,1.2-6.1,2.3-9.3,3.4
			c-2.8,1-5.7,2-8.6,2.9c-3.4,1-6.9,1.8-10.4,2.7c-2.7,0.6-5.4,1.4-8.2,1.9c-4,0.8-8.1,1.3-12.2,1.9c-2.3,0.3-4.6,0.7-7,1
			c-6.5,0.6-13,1-19.6,1c-6.6,0-13.2-0.4-19.6-1c-2.3-0.2-4.6-0.7-7-1c-4.1-0.6-8.2-1.1-12.2-1.9c-2.8-0.5-5.5-1.3-8.2-1.9
			c-3.5-0.8-7-1.7-10.4-2.7c-2.9-0.9-5.7-1.9-8.6-2.9c-3.1-1.1-6.2-2.2-9.3-3.4c-3-1.2-5.9-2.5-8.8-3.8c-2.9-1.3-5.5-2.6-8.2-4
			c-3-1.6-6.1-3.2-9-5.1c-2.4-1.4-4.7-2.8-7-4.3c-3.1-2-6.2-4.1-9.3-6.3c-1.9-1.4-3.8-2.8-5.7-4.3c-3.2-2.5-6.4-5.1-9.4-7.7
			c-0.7-0.6-1.4-1.3-2.1-1.9c0.7-57.3,37.5-107.8,91.8-126.2c27.1,12.9,58.6,12.9,85.8,0c54.3,18.3,91,68.9,91.8,126.2
			C372.7,386.5,372,387.1,371.3,387.7z M180,135c18.2-32.4,59.3-43.9,91.7-25.7c32.4,18.2,43.9,59.3,25.7,91.7
			c-6,10.8-14.9,19.6-25.7,25.7c-0.1,0-0.2,0-0.3,0.1c-4.5,2.5-9.2,4.5-14.1,6c-0.9,0.2-1.7,0.6-2.6,0.8c-1.7,0.4-3.5,0.7-5.2,1
			c-3.3,0.6-6.6,0.9-9.9,1h-1.9c-3.3-0.1-6.6-0.4-9.9-1c-1.7-0.3-3.5-0.6-5.2-1c-0.9-0.2-1.7-0.6-2.6-0.8c-4.9-1.5-9.6-3.5-14.1-6
			l-0.3-0.1C173.3,208.4,161.8,167.4,180,135z M403.3,352.5c-10.8-50.4-44-93.1-90.1-116c37.7-41.1,35-105-6.1-142.7
			c-41.1-37.7-105-35-142.7,6.1c-35.5,38.6-35.5,98,0,136.6c-46.2,22.9-79.3,65.6-90.1,116C9.7,261.5,31,135.5,122,70.9
			c90.9-64.6,217-43.2,281.5,47.7c24.3,34.2,37.3,75.1,37.3,117C440.8,277.6,427.7,318.4,403.3,352.5z"/>
	</g>
</g>
</svg>
