<?xml version="1.0" encoding="utf-8"?>
<!-- Generator: Adobe Illustrator 24.0.1, SVG Export Plug-In . SVG Version: 6.00 Build 0)  -->
<svg version="1.1" id="Capa_1" xmlns="http://www.w3.org/2000/svg" xmlns:xlink="http://www.w3.org/1999/xlink" x="0px" y="0px"
	 viewBox="0 0 478 478" style="enable-background:new 0 0 478 478;" xml:space="preserve">
<style type="text/css">
	.st0{fill:#2874F0;}
</style>
<g>
	<path class="st0" d="M411.7,73.6C371.7,31.8,318.1,6.2,261,1h-44.3C102.5,11.4,11.4,102.4,1,216.7v43.7
		C6.2,317.5,31.8,371,73.5,411c0.1,0.1,0.2,0.3,0.3,0.5c1.4,1.3,2.9,2.5,4.3,3.7c3.8,3.4,7.7,6.9,11.7,10.2c2.2,1.7,4.4,3.4,6.6,5
		c3.8,2.8,7.6,5.7,11.6,8.3c2.7,1.7,5.5,3.4,8.3,5.1c3.7,2.2,7.4,4.5,11.2,6.5c3.2,1.7,6.5,3.2,9.8,4.7c3.6,1.7,7.1,3.4,10.8,5
		c3.7,1.5,7.3,2.7,11.1,4.1c3.7,1.3,6.9,2.6,10.5,3.6c4,1.2,8.2,2.2,12.3,3.2c3.4,0.8,6.7,1.8,10.2,2.5c4.7,0.9,9.5,1.5,14.3,2.2
		c3,0.4,5.8,1,8.8,1.3c0.7,0.1,1.3,0.1,2,0.2h43.4c0.6,0,1.3-0.1,1.9-0.2c3-0.3,5.9-0.9,8.8-1.3c4.8-0.6,9.5-1.3,14.3-2.2
		c3.4-0.7,6.8-1.7,10.2-2.5c4.1-1,8.2-2,12.3-3.2c3.6-1.1,7-2.4,10.5-3.6c3.5-1.2,7.5-2.6,11.1-4.1c3.6-1.5,7.2-3.3,10.8-5
		c3.3-1.5,6.6-3,9.8-4.7c3.8-2,7.5-4.3,11.2-6.5c2.8-1.7,5.6-3.3,8.3-5.1c4-2.6,7.8-5.5,11.6-8.3c2.2-1.7,4.5-3.3,6.6-5
		c4-3.3,7.9-6.7,11.7-10.2c1.4-1.3,2.9-2.4,4.3-3.7c0.1-0.1,0.2-0.3,0.3-0.5C499.6,319.8,502.9,168.7,411.7,73.6z M179.4,136.8
		c18.5-32.9,60.1-44.5,93-26c32.9,18.5,44.5,60.1,26,93c-6.1,10.9-15.1,19.9-26,26c-0.1,0-0.2,0-0.3,0.1c-4.5,2.5-9.3,4.5-14.3,6
		c-0.9,0.3-1.7,0.6-2.7,0.8c-1.7,0.4-3.5,0.8-5.3,1c-3.3,0.6-6.7,0.9-10,1h-2c-3.4-0.1-6.7-0.4-10-1c-1.7-0.3-3.5-0.6-5.3-1
		c-0.9-0.2-1.7-0.6-2.7-0.8c-5-1.5-9.7-3.5-14.3-6l-0.3-0.1C172.6,211.3,161,169.7,179.4,136.8z M373.3,393.1
		c-3.1,2.7-6.3,5.3-9.6,7.8c-1.9,1.5-3.8,2.9-5.8,4.3c-3.1,2.2-6.2,4.3-9.4,6.4c-2.3,1.5-4.7,2.9-7.1,4.3c-3,1.7-6.1,3.4-9.2,5.1
		c-2.7,1.4-5.5,2.7-8.3,4c-2.8,1.3-5.9,2.7-8.9,3.9c-3,1.2-6.2,2.4-9.4,3.4c-2.9,1-5.8,2-8.7,2.9c-3.4,1-7,1.9-10.5,2.7
		c-2.8,0.7-5.5,1.4-8.3,1.9c-4,0.8-8.2,1.3-12.3,1.9c-2.4,0.3-4.7,0.7-7.1,1c-6.5,0.6-13.2,1-19.9,1c-6.7,0-13.4-0.4-19.9-1
		c-2.4-0.2-4.7-0.7-7.1-1c-4.1-0.6-8.3-1.1-12.3-1.9c-2.8-0.5-5.5-1.3-8.3-1.9c-3.5-0.8-7-1.7-10.5-2.7c-2.9-0.9-5.8-1.9-8.7-2.9
		c-3.2-1.1-6.3-2.2-9.4-3.4c-3.1-1.2-6-2.5-8.9-3.9c-2.9-1.4-5.6-2.6-8.3-4c-3.1-1.6-6.1-3.3-9.2-5.1c-2.4-1.4-4.8-2.8-7.1-4.3
		c-3.2-2-6.3-4.2-9.4-6.4c-2-1.4-3.9-2.9-5.8-4.3c-3.2-2.5-6.5-5.1-9.5-7.8c-0.8-0.6-1.4-1.3-2.2-1.9
		c0.8-58.1,38.1-109.3,93.1-127.9c27.5,13.1,59.4,13.1,86.9,0c55,18.6,92.3,69.9,93.1,127.9C374.8,391.8,374.1,392.5,373.3,393.1z"
		/>
	<g>
		<path class="st0" d="M411.7,73.6C371.7,31.8,318.1,6.2,261,1c-7.3-0.7-14.7-1-22.1-1c-7.5,0-14.9,0.3-22.2,1
			C102.5,11.4,11.4,102.4,1,216.7c-0.7,7.1-1,14.4-1,21.7c0,7.4,0.3,14.8,1,22.1C6.2,317.5,31.8,371,73.5,411
			c0.1,0.1,0.2,0.3,0.3,0.5c1.4,1.3,2.9,2.5,4.3,3.7c3.8,3.4,7.7,6.9,11.7,10.2c2.2,1.7,4.4,3.4,6.6,5c3.8,2.8,7.6,5.7,11.6,8.3
			c2.7,1.7,5.5,3.4,8.3,5.1c3.7,2.2,7.4,4.5,11.2,6.5c3.2,1.7,6.5,3.2,9.8,4.7c3.6,1.7,7.1,3.4,10.8,5c3.7,1.5,7.3,2.7,11.1,4.1
			c3.7,1.3,6.9,2.6,10.5,3.6c4,1.2,8.2,2.2,12.3,3.2c3.4,0.8,6.7,1.8,10.2,2.5c4.7,0.9,9.5,1.5,14.3,2.2c3,0.4,5.8,1,8.8,1.3
			c0.7,0.1,1.3,0.1,2,0.2c7.2,0.7,14.4,1,21.7,1c7.3,0,14.5-0.4,21.7-1c0.6,0,1.3-0.1,1.9-0.2c3-0.3,5.9-0.9,8.8-1.3
			c4.8-0.6,9.5-1.3,14.3-2.2c3.4-0.7,6.8-1.7,10.2-2.5c4.1-1,8.2-2,12.3-3.2c3.6-1.1,7-2.4,10.5-3.6c3.5-1.2,7.5-2.6,11.1-4.1
			c3.6-1.5,7.2-3.3,10.8-5c3.3-1.5,6.6-3,9.8-4.7c3.8-2,7.5-4.3,11.2-6.5c2.8-1.7,5.6-3.3,8.3-5.1c4-2.6,7.8-5.5,11.6-8.3
			c2.2-1.7,4.5-3.3,6.6-5c4-3.3,7.9-6.7,11.7-10.2c1.4-1.3,2.9-2.4,4.3-3.7c0.1-0.1,0.2-0.3,0.3-0.5
			C499.6,319.8,502.9,168.7,411.7,73.6z M373.3,393.1c-3.1,2.7-6.3,5.3-9.6,7.8c-1.9,1.5-3.8,2.9-5.8,4.3c-3.1,2.2-6.2,4.3-9.4,6.4
			c-2.3,1.5-4.7,2.9-7.1,4.3c-3,1.7-6.1,3.4-9.2,5.1c-2.7,1.4-5.5,2.7-8.3,4c-2.8,1.3-5.9,2.7-8.9,3.9c-3,1.2-6.2,2.4-9.4,3.4
			c-2.9,1-5.8,2-8.7,2.9c-3.4,1-7,1.9-10.5,2.7c-2.8,0.7-5.5,1.4-8.3,1.9c-4,0.8-8.2,1.3-12.3,1.9c-2.4,0.3-4.7,0.7-7.1,1
			c-6.5,0.6-13.2,1-19.9,1c-6.7,0-13.4-0.4-19.9-1c-2.4-0.2-4.7-0.7-7.1-1c-4.1-0.6-8.3-1.1-12.3-1.9c-2.8-0.5-5.5-1.3-8.3-1.9
			c-3.5-0.8-7-1.7-10.5-2.7c-2.9-0.9-5.8-1.9-8.7-2.9c-3.2-1.1-6.3-2.2-9.4-3.4c-3.1-1.2-6-2.5-8.9-3.9c-2.9-1.4-5.6-2.6-8.3-4
			c-3.1-1.6-6.1-3.3-9.2-5.1c-2.4-1.4-4.8-2.8-7.1-4.3c-3.2-2-6.3-4.2-9.4-6.4c-2-1.4-3.9-2.9-5.8-4.3c-3.2-2.5-6.5-5.1-9.5-7.8
			c-0.8-0.6-1.4-1.3-2.2-1.9c0.8-58.1,38.1-109.3,93.1-127.9c27.5,13.1,59.4,13.1,86.9,0c55,18.6,92.3,69.9,93.1,127.9
			C374.8,391.8,374.1,392.5,373.3,393.1z M179.4,136.8c18.5-32.9,60.1-44.5,93-26c32.9,18.5,44.5,60.1,26,93
			c-6.1,10.9-15.1,19.9-26,26c-0.1,0-0.2,0-0.3,0.1c-4.5,2.5-9.3,4.5-14.3,6c-0.9,0.3-1.7,0.6-2.7,0.8c-1.7,0.4-3.5,0.8-5.3,1
			c-3.3,0.6-6.7,0.9-10,1h-2c-3.4-0.1-6.7-0.4-10-1c-1.7-0.3-3.5-0.6-5.3-1c-0.9-0.2-1.7-0.6-2.7-0.8c-5-1.5-9.7-3.5-14.3-6
			l-0.3-0.1C172.6,211.3,161,169.7,179.4,136.8z M405.8,357.3c-11-51.1-44.6-94.4-91.4-117.6c38.2-41.7,35.5-106.4-6.2-144.7
			c-41.7-38.2-106.4-35.5-144.7,6.2c-36,39.2-36,99.3,0,138.5c-46.8,23.3-80.4,66.5-91.4,117.6c-65.4-92.2-43.8-220,48.4-285.4
			c92.2-65.5,220-43.8,285.4,48.4c24.6,34.6,37.8,76.1,37.8,118.6C443.7,281.4,430.5,322.8,405.8,357.3z"/>
	</g>
</g>
</svg>
