<svg xmlns="http://www.w3.org/2000/svg" viewBox="0 0 1304.32 349.33">
  <defs>
    <style>
      .cls-1 {
        fill: #fff;
      }
    </style>
  </defs>
  <title>Asset 1</title>
  <g id="Layer_2" data-name="Layer 2">
    <g id="Layer_1-2" data-name="Layer 1">
      <path class="cls-1" d="M364,1.21c10.87-1.64,23.37-2.66,32.6,4.1,5.74,4.31,7.79,12.1,7.38,19.08.41,11.48-4.92,23.78-15.17,29.73-9,4.92-19.89,5.33-29.94,4.3-6.77-.82-13.53-4.51-17-10.66C334,29.92,343.67,4.7,364,1.21ZM38.75,14.13C39.36,8,44.9,2.44,51.25,2.65c47.37,0,94.53.2,141.7,0,5.13-.41,10.66,1.84,13.12,6.36,3.49,6.15.41,12.91,0,19.27-1.43,8.61-1,20.1-11.07,23.37-34.45,1-68.9,0-103.35.41C88.37,73.8,85.29,95.33,82,116.86c0,.83.21,2.67.21,3.49,25.22-.21,50.44,0,75.66-.21,7-.41,14.36,5.54,13.74,12.92-.61,7.59-2.25,15-3.28,22.56a13.36,13.36,0,0,1-10.25,10.87c-28.09.61-56.6-.62-84.69.61-4.51,31-9.85,61.93-14.56,92.89-.61,6.16-5.54,11.49-11.69,11.69q-17.53.31-35.06,0C4.5,271.89-1.65,263.48.4,256.3Q19.17,135.11,38.75,14.13ZM247.08,3.06c10.67-.82,21.53-.21,32.2-.41,6.56-.41,13.12,4.72,13.74,11.48,0,5.33-1.44,10.67-2,16C282.36,85.08,273.54,140,264.92,195c-1.23,8.82-3.48,18.25-.81,27.27,3.07,9,16.81,5.13,20.09,14.56,2.05,7.59-.21,15.59-.82,23.38-.61,10.25-12.31,12.51-20.3,14.77-17.43,3.27-38.55.82-51.06-13.54-9-10.45-9.64-25.22-7.79-38.35Q220.52,118.52,237,13.72A12.42,12.42,0,0,1,247.08,3.06Zm407,11.07c.62-6.15,6.16-11.48,12.31-11.48H697.6c7.79-.21,14.15,8.2,12.3,15.58-7.18,45.53-14.56,91.05-21.74,136.57,10.87-1.64,23.18-3.69,30.77-12.51a190.61,190.61,0,0,0,31-48.39c2.66-6.77,4.1-16.61,12.91-17.84,11.7-.41,23.59-.21,35.27,0,8-.21,13.95,8.82,11.29,16.2-3.08,10.87-8.21,20.91-13.54,30.55-11.89,19.28-25,38.35-42.24,53.52,7.58,22.76,17.22,44.91,25.63,67.26,2.46,7.39,8.41,16,2.87,23.17-6.36,8.61-18.25,4.31-27.06,5.33-9.24-1-22.56,3.69-27.69-6.76C717.69,243,709.69,220,699.85,197.66a123.68,123.68,0,0,1-17.43-.21c-.4.83-1.23,2.46-1.64,3.28-3.07,20.51-6.35,41-9.63,61.52-1.24,4.92-5.13,9.23-10.46,9.64-10.87.41-21.94.2-33,.2a12.77,12.77,0,0,1-11.07-7.17c-2.05-4.11-.82-8.82-.2-13.33q19.07-118.72,37.72-237.46ZM1224,36.48a12.76,12.76,0,0,1,12.71-9.43c8.21.21,16.61-.2,25,.21,6.77.2,12.1,7,11.28,13.53-1.23,11.69-4.1,23.38-4.92,35.06,8,0,16.2-.2,24.2,0,7.17,0,13.12,7.39,11.89,14.36-1,6.35-2.46,12.51-3.49,18.86A13.35,13.35,0,0,1,1290,119.53c-9.84.61-19.48-.41-29.12.61-4.1,27.48-8.61,55-12.92,82.44-.61,6.36-1,13.53,2.67,19.07,5.54,6.77,15.17,4.3,23,5.13,6.15,1.84,10,8.61,9,14.76-1,7-1.22,13.94-2.86,20.71-2.46,7.58-11.28,9-18,10.87-18.66,4.92-40.19,4.92-56.8-5.95-15.38-10.46-17.84-30.76-16.2-48,4.31-33.22,11.08-66.23,14.77-99.66-5.75.2-12.72,1-17-4.1-4.93-5.13-2.46-12.72-1.64-19.08,1.23-6.76,1-15.58,8.4-19.27,6-2.26,12.72-.61,19.07-1.43,3.9-13.12,7.59-26.25,11.69-39.17Zm-115.86,66.44C1121,90,1136.62,79.34,1154.46,74c7.8-3.49,17.84,3.07,17.64,11.69-1.43,11.28-4.1,22.35-5.95,33.42A13,13,0,0,1,1155.08,130c-20.1,3.49-37.53,15.58-51.47,29.93-3.49,4.31-8.61,8.41-9.23,14.36-4.3,28.71-8.81,57.42-13.33,86.12-.61,6.15-5.94,12.1-12.3,11.69h-31.17c-7.17.41-13.53-6.76-12.71-13.94,9-56.8,18-113.4,26.86-170.2.41-5.74,4.51-11.28,10.46-11.89,7.59-.41,15.17-.21,23-.21a12.32,12.32,0,0,1,11.89,11.89c0,8.82-.82,17.84-1,26.87,4.92-3.08,8-8,12.1-11.69Zm-766.5-26c11.07-2.26,22.55-.41,33.63-1,6.35-.82,13.12,3.29,14.14,9.64.82,5.74-.82,11.28-1.43,16.82q-12.61,79-25,158.09c-.62,6-5.53,11.9-11.89,11.69-11.07,0-22.15.21-33.43-.2-7-.82-12.09-8.82-10.25-15.58,8.82-54.75,17.23-109.3,26-164,.41-6,2-12.92,8.21-15.38Zm663.56,2.67c-30.55-5.75-61.72-9.85-92.68-6.77-27.69,3.48-55.57,16-72.59,38.75-23.59,29.94-31.58,70.13-26.25,107.46,2.87,17.84,10.66,35.88,25.22,46.95,13.53,10.46,31.78,11.89,48.19,9.23,23-4.51,42.45-19.27,58.44-35.68.82,7-.82,13.95-.41,20.71.41,6.36,6.15,12.3,12.51,11.89h20.92c6.15,0,11.27-5.74,11.68-11.69q13.23-83.35,26.25-166.3c1.23-7-4.3-13.73-11.28-14.55Zm-57.62,96.58c-8.2,15.38-19.69,29.32-32.6,41.21-7.38,6.15-16.82,12.51-26.86,10.46-9.85-2.05-14.57-12.3-16.82-21.12a90.19,90.19,0,0,1,12.51-67.87,43.82,43.82,0,0,1,25.63-19.07c15-3.69,30.76-1.85,45.32,2.25l.82.82c-1.85,17.84-5.33,35.48-8,53.32Zm-344.9-30.76c-.21-20.51-5.75-42-20.1-57.42-9.84-10.87-24.61-16.4-39-16.2-23.79-.82-46.14,10.87-63.57,26.46-3.9,3.07-6.56,7.58-10.87,10,0-6.77.62-13.53.41-20.5.21-6.36-5.74-11.9-11.89-11.9H436.76c-6.56,0-11.89,5.75-12.3,12.1Q405.08,211,385.5,334c-1.84,7.59,4.72,15.38,12.51,15.17,11.48-.2,23.17.83,34.45-.82,9-2.46,8.82-12.91,10.25-20.5,3.28-18.05,5.54-36.09,7.59-54.34,40.4,7.79,87.35,2.46,117.5-28.09,24.6-26.87,36.09-64,34.86-100.07Zm-57.42,20.71c-1.23,18.86-8,37.93-21.12,51.67-17,16.21-42.86,13.95-63.78,8.41a14.05,14.05,0,0,1-1.22-2.46c3.27-17.84,4.92-35.89,9-53.52,11.48-18.87,25.43-37.94,45.32-48.39,7.38-3.49,17.43-2.67,22.76,4.1,9,11.28,9.84,26.45,9,40.19Z"/>
    </g>
  </g>
</svg>
